# xmcd CD database file
# Copyright (C) 1993-1996 Ti Kan
#
# Track frame offsets:
#	150
#	18008
#	31919
#	41980
#	54172
#	55621
#	75543
#	92347
#	110626
#	127014
#	144890
#	155709
#
# Disc length: 2136 seconds
#
# Revision: 1
# Processed by: cddbd v1.4b41PL1 Copyright (c) Steve Scherf et al.
# Submitted via: CDValet v3.01 - Copyright (c) 1997 Greg Leichner
#
DISCID=8d08560c
DTITLE=Los Toros - Ontilho Neto
DYEAR=1900
DGENRE=
TTITLE0=Meu Santinho Padroeiro
TTITLE1=Queria mesmo ser ele
TTITLE2=Não vou mais chorar
TTITLE3=Balada Del Toro
TTITLE4=Vinheta smell's like
TTITLE5=Voce gosta de mim
TTITLE6=Nao vou chorar
TTITLE7=Hei de te ver na miseria
TTITLE8=Ah, se eu tivesse uma bala
TTITLE9=Legitimo Alemao
TTITLE10=Kadela
TTITLE11=Seu bichinho faz dinheiro
EXTD=
EXTT0=
EXTT1=
EXTT2=
EXTT3=
EXTT4=
EXTT5=
EXTT6=
EXTT7=
EXTT8=
EXTT9=
EXTT10=
EXTT11=
PLAYORDER=
